<svg width="733" height="769" viewBox="0 0 733 769" fill="none" xmlns="http://www.w3.org/2000/svg">
<path d="M379.7 768.5C156.938 778 -86.4044 472.262 30.1998 261C303.194 302.152 373.284 564.352 362.696 685.5C373.724 698.036 381.291 689.845 384.196 685.5C375.66 372.119 607.167 270.134 717.7 261C786.684 639.797 602.462 759 379.7 768.5Z" fill="white"/>
<path d="M372.938 583C333.737 319 147.438 203.667 59.9375 183C103.938 45 285.938 3.5 371.438 0C547.837 2.8 654.604 123.167 685.938 183C459.538 245.4 383.438 478.333 372.938 583Z" fill="white"/>
</svg>
