<svg width="57" height="96" viewBox="0 0 57 96" fill="none" xmlns="http://www.w3.org/2000/svg">
<path d="M43.1055 1.07938C44.6195 2.59693 45.1793 5.3497 44.4923 7.74956L34.5178 42.3533H52.9274C54.6449 42.3533 56.1716 43.8356 56.7569 46.0766C57.3421 48.3176 56.8459 50.8234 55.5355 52.3409L18.8944 94.6912C17.4568 96.3499 15.4084 96.4382 13.8945 94.9206C12.3805 93.4031 11.8207 90.6503 12.5077 88.2504L22.4822 53.6467H4.07262C2.35507 53.6467 0.828356 52.1644 0.243116 49.9234C-0.342123 47.6824 0.154058 45.1766 1.46449 43.6591L38.1056 1.30878C39.5432 -0.349942 41.5915 -0.438172 43.1055 1.07938Z" fill="#25C1C9"/>
</svg>
