<?xml version="1.0" encoding="UTF-8" standalone="no"?>
<!-- Created with Inkscape (http://www.inkscape.org/) -->

<svg
   width="210mm"
   height="297mm"
   viewBox="0 0 210 297"
   version="1.1"
   id="svg1"
   xml:space="preserve"
   inkscape:version="1.4.3 (0d15f75042, 2025-12-25)"
   sodipodi:docname="random-selected.svg"
   xmlns:inkscape="http://www.inkscape.org/namespaces/inkscape"
   xmlns:sodipodi="http://sodipodi.sourceforge.net/DTD/sodipodi-0.dtd"
   xmlns="http://www.w3.org/2000/svg"
   xmlns:svg="http://www.w3.org/2000/svg"><sodipodi:namedview
     id="namedview1"
     pagecolor="#ffffff"
     bordercolor="#000000"
     borderopacity="0.25"
     inkscape:showpageshadow="2"
     inkscape:pageopacity="0.0"
     inkscape:pagecheckerboard="0"
     inkscape:deskcolor="#d1d1d1"
     inkscape:document-units="mm"
     inkscape:zoom="0.7066698"
     inkscape:cx="309.90429"
     inkscape:cy="583.72383"
     inkscape:window-width="1646"
     inkscape:window-height="995"
     inkscape:window-x="0"
     inkscape:window-y="0"
     inkscape:window-maximized="1"
     inkscape:current-layer="svg1" /><defs
     id="defs1"><inkscape:path-effect
       effect="fillet_chamfer"
       id="path-effect1"
       is_visible="true"
       lpeversion="1"
       nodesatellites_param="F,0,0,1,0,2,0,1 @ F,0,0,1,0,2,0,1 @ F,0,0,1,0,2,0,1 @ F,0,0,1,0,2,0,1 @ F,0,0,1,0,2,0,1 @ F,0,0,1,0,2,0,1 @ F,0,0,1,0,2,0,1 @ F,0,0,1,0,2,0,1"
       radius="2"
       unit="mm"
       method="auto"
       mode="F"
       chamfer_steps="1"
       flexible="false"
       use_knot_distance="true"
       apply_no_radius="true"
       apply_with_radius="true"
       only_selected="false"
       hide_knots="false" /></defs><g
     inkscape:label="Capa 1"
     inkscape:groupmode="layer"
     id="layer1"><path
       id="rect1"
       style="fill:#ffffff;stroke-width:0.264583;stroke-linejoin:round;stroke-miterlimit:0;fill-opacity:1"
       d="M 41.971082 71.669527 C 40.866512 71.669527 39.070292 71.654178 37.978044 71.812154 C 31.994292 72.677604 27.287099 77.384805 26.421643 83.368555 C 26.26367 84.46081 26.279016 86.257023 26.279016 87.361593 L 26.279016 196.92751 C 26.279016 198.03208 26.263667 199.8283 26.421643 200.92055 C 27.287093 206.9043 31.994294 211.61149 37.978044 212.47695 C 39.070298 212.6349 40.866512 212.61958 41.971082 212.61958 L 177.47444 212.61958 C 178.57901 212.61958 180.37524 212.63492 181.46748 212.47695 C 187.45124 211.6115 192.15842 206.9043 193.02388 200.92055 C 193.18183 199.8283 193.1665 198.03208 193.1665 196.92751 L 193.1665 87.361593 C 193.1665 86.257023 193.18186 84.460803 193.02388 83.368555 C 192.15843 77.384803 187.45123 72.677609 181.46748 71.812154 C 180.37522 71.65418 178.57901 71.669527 177.47444 71.669527 L 41.971082 71.669527 z M 153.67692 82.292135 C 155.72796 82.397813 157.7144 83.251764 159.23576 84.756584 L 176.16909 101.68992 C 177.75659 103.27742 178.65628 105.42044 178.65628 107.6694 C 178.65628 109.91836 177.75659 112.06138 176.16909 113.64888 L 159.23576 130.58221 C 156.80159 133.01638 153.1767 133.73086 150.0017 132.40794 C 146.8267 131.08503 144.76274 128.04222 144.76274 124.62909 L 144.76274 116.16242 L 136.29607 116.16242 C 133.62377 116.16242 131.11034 117.40617 129.52284 119.54929 L 120.95024 130.97909 L 110.36691 116.87659 L 115.97638 109.38919 C 120.76534 102.98628 128.30565 99.229085 136.29607 99.229085 L 144.76274 99.229085 L 144.76274 90.762419 C 144.76274 87.349289 146.8267 84.253773 150.0017 82.930855 C 151.19232 82.434761 152.4463 82.228727 153.67692 82.292135 z M 51.629407 99.229085 L 68.56274 99.229085 C 76.553157 99.229085 84.093989 102.98628 88.882947 109.38919 L 129.52284 163.57555 C 131.11034 165.71867 133.62377 166.96242 136.29607 166.96242 L 144.76274 166.96242 L 144.76274 158.49575 C 144.76274 155.08263 146.8267 151.98711 150.0017 150.66419 C 153.1767 149.34128 156.80159 150.08221 159.23576 152.48992 L 176.16909 169.42325 C 177.75659 171.01075 178.65628 173.15378 178.65628 175.40273 C 178.65628 177.65169 177.75659 179.79471 176.16909 181.38221 L 159.23576 198.31554 L 159.2094 198.3419 C 156.77524 200.77607 153.15034 201.49055 149.97534 200.16763 C 146.80034 198.84472 144.76274 195.77554 144.76274 192.36242 L 144.76274 183.89575 L 136.29607 183.89575 C 128.30565 183.89575 120.76534 180.13857 115.97638 173.73565 L 75.336487 119.54929 C 73.748987 117.40617 71.235032 116.16242 68.56274 116.16242 L 51.629407 116.16242 C 46.946282 116.16242 43.16274 112.37888 43.16274 107.69575 C 43.16274 103.01263 46.946282 99.229085 51.629407 99.229085 z M 83.908573 152.14575 L 94.491907 166.24825 L 88.882947 173.73565 C 84.093989 180.13857 76.553157 183.89575 68.56274 183.89575 L 51.629407 183.89575 C 46.946282 183.89575 43.16274 180.11222 43.16274 175.42909 C 43.16274 170.74597 46.946282 166.96242 51.629407 166.96242 L 68.56274 166.96242 C 71.235032 166.96242 73.748987 165.71867 75.336487 163.57555 L 83.908573 152.14575 z " /></g></svg>
